<?xml version="1.0" standalone="no"?><!DOCTYPE svg PUBLIC "-//W3C//DTD SVG 1.1//EN" "http://www.w3.org/Graphics/SVG/1.1/DTD/svg11.dtd"><svg class="icon" width="200px" height="200.00px" viewBox="0 0 1024 1024" version="1.1" xmlns="http://www.w3.org/2000/svg"><path d="M512 55.854545C228.072727 55.854545 0 260.654545 0 512c0 116.363636 48.872727 221.090909 130.327273 302.545455L18.618182 968.145455h498.036363C795.927273 965.818182 1024 763.345455 1024 512S795.927273 55.854545 512 55.854545zM256 593.454545c-44.218182 0-81.454545-37.236364-81.454545-81.454545s37.236364-81.454545 81.454545-81.454545 81.454545 37.236364 81.454545 81.454545-37.236364 81.454545-81.454545 81.454545z m256 0c-44.218182 0-81.454545-37.236364-81.454545-81.454545s37.236364-81.454545 81.454545-81.454545 81.454545 37.236364 81.454545 81.454545-37.236364 81.454545-81.454545 81.454545z m256 0c-44.218182 0-81.454545-37.236364-81.454545-81.454545s37.236364-81.454545 81.454545-81.454545 81.454545 37.236364 81.454545 81.454545-37.236364 81.454545-81.454545 81.454545z" fill="#268CF0" /></svg>