<?xml version="1.0" standalone="no"?><!DOCTYPE svg PUBLIC "-//W3C//DTD SVG 1.1//EN" "http://www.w3.org/Graphics/SVG/1.1/DTD/svg11.dtd"><svg class="icon" width="200px" height="185.84px" viewBox="0 0 1102 1024" version="1.1" xmlns="http://www.w3.org/2000/svg"><path d="M979.006955 788.168733A50.490261 50.490261 0 0 0 1023.983459 735.079129a95.466766 95.466766 0 0 0-90.031777-106.10044A131.857562 131.857562 0 0 1 866.447542 525.792663V420.637439A345.161194 345.161194 0 0 0 650.623336 71.222776a104.682617 104.682617 0 0 0-198.416487 0A345.161194 345.161194 0 0 0 236.303875 420.637439v105.155224a131.857562 131.857562 0 0 1-67.50414 103.186026A95.466766 95.466766 0 0 0 78.767958 735.079129a50.569029 50.569029 0 0 0 45.055273 53.089604h855.183724zM708.911625 865.282564a157.535917 157.535917 0 1 1-315.071833 0h315.071833z" fill="#008DFF" /></svg>