<?xml version="1.0" standalone="no"?><!DOCTYPE svg PUBLIC "-//W3C//DTD SVG 1.1//EN" "http://www.w3.org/Graphics/SVG/1.1/DTD/svg11.dtd"><svg class="icon" width="200px" height="200.00px" viewBox="0 0 1024 1024" version="1.1" xmlns="http://www.w3.org/2000/svg"><path d="M512.118181 0C229.822882 0 0 227.931984 0 510.62122c0 86.390398 21.587751 169.74748 62.123875 243.965223 3.939371 7.209048 6.263599 43.608833 4.490882 91.51158 0.275756-7.169655-42.033085 144.653689-15.481726 171.992921 26.630145 27.339232 181.880742-49.557282 157.220281-44.75125 39.275525-7.524198 69.057167-8.706009 77.841964-4.372702 70.908671 34.627068 147.962761 52.433023 225.883511 52.236055 282.295299 0 512.118181-227.971378 512.118182-510.62122C1024.236362 227.931984 794.41348 0 512.118181 0z m0 948.285297a446.960991 446.960991 0 0 1-197.401862-45.578519c-26.236208-12.842348-65.117796-11.345387-118.417481-1.103023-22.060475 4.25452-34.587674 47.390629-65.629914 15.481726-31.042241-31.908902 3.269678-45.302762 4.136339-68.03293 2.44241-64.054166-0.354543-106.71755-13.748404-131.220436a430.179272 430.179272 0 0 1-52.82696-207.210895c0-241.089482 198.150342-437.664076 443.848888-437.664076s443.848888 196.574594 443.848889 437.664076-198.150342 437.664076-443.809495 437.664077zM325.628376 414.85512c-43.175502 0-78.157113 35.808879-78.157113 80.008618s35.021005 80.008617 78.157113 80.008617 78.157113-35.808879 78.157113-80.008617-35.021005-80.008617-78.157113-80.008618z m372.388705 0c-42.820959 0-77.566208 35.808879-77.566208 80.008618s34.745249 80.008617 77.566208 80.008617 77.566208-35.808879 77.566207-80.008617-34.745249-80.008617-77.566207-80.008618z" fill="#5C5D5D" /></svg>