<?xml version="1.0" standalone="no"?><!DOCTYPE svg PUBLIC "-//W3C//DTD SVG 1.1//EN" "http://www.w3.org/Graphics/SVG/1.1/DTD/svg11.dtd"><svg class="icon" width="200px" height="200.00px" viewBox="0 0 1024 1024" version="1.1" xmlns="http://www.w3.org/2000/svg"><path d="M512 425.09642791a43.44522755 43.44522755 0 1 0 43.44522755 43.44522755A43.45834454 43.45834454 0 0 0 512 425.09642791z m-173.80714417 1e-8a43.44522755 43.44522755 0 1 0 43.44522755 43.44522754 43.45834454 43.45834454 0 0 0-43.44522755-43.44522754zM512 164.38571167C320.02509039 164.38571167 164.38571167 300.57180725 164.38571167 468.54165546c0 96.00713134 50.94844868 181.49401088 130.38815199 237.23035484V859.61428833l152.28129299-92.39981295a398.19544653 398.19544653 0 0 0 64.98419574 5.49624087c191.97490961 0 347.61428833-136.17297857 347.61428833-304.1559438S704.04049736 164.38571167 512 164.38571167z m0 564.87977704a351.03796115 351.03796115 0 0 1-73.45811348-7.97545176l-102.31665859 61.49493516 1.31175171-100.78190893c-78.41653664-47.1443677-129.86345131-125.10179141-129.86345064-213.44829073C207.673529 324.57687002 343.8465069 207.84405621 511.82947212 207.84405621s304.15594379 116.74593081 304.15594377 260.71071624S679.98296521 729.26548871 512 729.26548871z m173.80714417-304.1690608a43.44522755 43.44522755 0 1 0 43.45834454 43.44522755 43.45834454 43.45834454 0 0 0-43.45834454-43.44522755z m0 0" fill="#13227A" /></svg>