<?xml version="1.0" standalone="no"?><!DOCTYPE svg PUBLIC "-//W3C//DTD SVG 1.1//EN" "http://www.w3.org/Graphics/SVG/1.1/DTD/svg11.dtd"><svg class="icon" width="200px" height="200.00px" viewBox="0 0 1024 1024" version="1.1" xmlns="http://www.w3.org/2000/svg"><path d="M512.085834 0.343336C230.55021 0.343336 1.373345 198.104946 1.373345 441.186924c0 145.231182 82.057334 279.818944 220.078457 362.391282L185.916513 1002.541492c0 8.240067 4.635038 15.793462 12.188433 19.398491 2.918357 1.373345 6.008382 2.060017 9.098407 2.060017 4.806706 0 9.613412-1.545013 13.390109-4.806706l216.645096-142.312825c26.780218 3.433361 51.157083 5.150042 74.50394 5.150042 281.535624 0 510.540821-197.761609 510.540821-440.843587S793.44979 0.343336 512.085834 0.343336zM266.772171 488.738977c-26.951886 0-48.925398-22.316848-48.925398-49.955406s21.973512-49.955407 48.925398-49.955407 48.925398 22.316848 48.925398 49.955407c0 27.46689-21.801844 49.955407-48.925398 49.955406z m269.175524-6.695054c-15.10679 8.926739-33.818609 8.926739-48.925398 0s-24.548533-25.406873-24.548533-43.260352c0-27.638558 21.973512-49.955407 48.925398-49.955407s48.925398 22.316848 48.925398 49.955407c0 17.681811-9.270075 34.333613-24.376865 43.260352z m220.078458 6.695054c-27.123554 0-48.925398-22.316848-48.925399-49.955406s21.801844-49.955407 48.925399-49.955407 48.925398 22.316848 48.925398 49.955407-21.801844 49.955407-48.925398 49.955406z" fill="#346ED8" /></svg>