<?xml version="1.0" standalone="no"?><!DOCTYPE svg PUBLIC "-//W3C//DTD SVG 1.1//EN" "http://www.w3.org/Graphics/SVG/1.1/DTD/svg11.dtd"><svg class="icon" width="200px" height="200.00px" viewBox="0 0 1024 1024" version="1.1" xmlns="http://www.w3.org/2000/svg"><path d="M512 954.181818c-109.381818 0-209.454545-90.763636-209.454545-190.836363h53.527272c0 62.836364 67.490909 137.309091 155.927273 137.30909 76.8 0 155.927273-69.818182 155.927273-137.30909H721.454545c0 97.745455-102.4 190.836364-209.454545 190.836363z m-9.309091-884.363636c13.963636 0 27.927273 11.636364 27.927273 27.927273v55.854545c0 16.290909-11.636364 27.927273-27.927273 27.927273s-27.927273-11.636364-27.927273-27.927273V97.745455c0-16.290909 13.963636-27.927273 27.927273-27.927273z" fill="#333333" /><path d="M500.363636 116.363636C318.836364 116.363636 211.781818 242.036364 211.781818 404.945455c0 134.981818-25.6 181.527273-41.890909 209.454545-25.6 44.218182-53.527273 76.8-53.527273 116.363636C116.363636 791.272727 141.963636 814.545455 202.472727 814.545455h598.109091c60.509091 0 86.109091-23.272727 86.109091-83.781819 0-39.563636-20.945455-62.836364-53.527273-116.363636-16.290909-27.927273-41.890909-72.145455-41.890909-209.454545-2.327273-162.909091-109.381818-288.581818-290.909091-288.581819m0 55.854546c141.963636 0 232.727273 90.763636 232.727273 235.054545 0 137.309091 23.272727 195.490909 51.2 237.381818 6.981818 11.636364 13.963636 23.272727 20.945455 32.581819 20.945455 32.581818 25.6 41.890909 25.6 55.854545 0 18.618182-4.654545 25.6-4.654546 25.6s-6.981818 4.654545-25.6 4.654546H202.472727c-20.945455 0-25.6-4.654545-25.6-4.654546s-4.654545-4.654545-4.654545-25.6c0-16.290909 13.963636-37.236364 30.254545-65.163636 4.654545-6.981818 9.309091-13.963636 13.963637-23.272728 25.6-41.890909 51.2-100.072727 51.2-237.381818 0-144.290909 90.763636-235.054545 232.727272-235.054545" fill="#333333" /></svg>